<svg width="312" height="312" viewBox="0 0 312 312" fill="none" xmlns="http://www.w3.org/2000/svg">
<path d="M311.5 156C311.5 241.88 241.88 311.5 156 311.5C70.1197 311.5 0.5 241.88 0.5 156C0.5 70.1197 70.1197 0.5 156 0.5C241.88 0.5 311.5 70.1197 311.5 156Z" fill="#ADADAD" stroke="#ADADAD"/>
<path d="M99.4 72.6H77.7V61.2H133.7V72.6H112V132H99.4V72.6Z" fill="white"/>
<path d="M188.9 61.2H201.5V120.6H231.6V132H188.9V61.2Z" fill="white"/>
<path d="M84.9 181.2H112.8C117.467 181.2 121.967 181.933 126.3 183.4C130.633 184.8 134.467 186.967 137.8 189.9C141.133 192.833 143.8 196.533 145.8 201C147.8 205.4 148.8 210.6 148.8 216.6C148.8 222.667 147.633 227.933 145.3 232.4C143.033 236.8 140.067 240.467 136.4 243.4C132.8 246.267 128.767 248.433 124.3 249.9C119.9 251.3 115.567 252 111.3 252H84.9V181.2ZM106.9 240.6C110.833 240.6 114.533 240.167 118 239.3C121.533 238.367 124.6 236.967 127.2 235.1C129.8 233.167 131.833 230.7 133.3 227.7C134.833 224.633 135.6 220.933 135.6 216.6C135.6 212.333 134.933 208.667 133.6 205.6C132.267 202.533 130.4 200.067 128 198.2C125.667 196.267 122.867 194.867 119.6 194C116.4 193.067 112.867 192.6 109 192.6H97.5V240.6H106.9Z" fill="white"/>
<path d="M184.9 181.2H209.5C212.9 181.2 216.167 181.533 219.3 182.2C222.5 182.8 225.333 183.867 227.8 185.4C230.267 186.933 232.233 189 233.7 191.6C235.167 194.2 235.9 197.5 235.9 201.5C235.9 206.633 234.467 210.933 231.6 214.4C228.8 217.867 224.767 219.967 219.5 220.7L238.3 252H223.1L206.7 222H197.5V252H184.9V181.2ZM207.3 211.2C209.1 211.2 210.9 211.133 212.7 211C214.5 210.8 216.133 210.4 217.6 209.8C219.133 209.133 220.367 208.167 221.3 206.9C222.233 205.567 222.7 203.733 222.7 201.4C222.7 199.333 222.267 197.667 221.4 196.4C220.533 195.133 219.4 194.2 218 193.6C216.6 192.933 215.033 192.5 213.3 192.3C211.633 192.1 210 192 208.4 192H197.5V211.2H207.3Z" fill="white"/>
<path d="M104.4 74.6H82.7V63.2H138.7V74.6H117V134H104.4V74.6Z" fill="black"/>
<path d="M193.9 63.2H206.5V122.6H236.6V134H193.9V63.2Z" fill="black"/>
<path d="M89.9 183.2H117.8C122.467 183.2 126.967 183.933 131.3 185.4C135.633 186.8 139.467 188.967 142.8 191.9C146.133 194.833 148.8 198.533 150.8 203C152.8 207.4 153.8 212.6 153.8 218.6C153.8 224.667 152.633 229.933 150.3 234.4C148.033 238.8 145.067 242.467 141.4 245.4C137.8 248.267 133.767 250.433 129.3 251.9C124.9 253.3 120.567 254 116.3 254H89.9V183.2ZM111.9 242.6C115.833 242.6 119.533 242.167 123 241.3C126.533 240.367 129.6 238.967 132.2 237.1C134.8 235.167 136.833 232.7 138.3 229.7C139.833 226.633 140.6 222.933 140.6 218.6C140.6 214.333 139.933 210.667 138.6 207.6C137.267 204.533 135.4 202.067 133 200.2C130.667 198.267 127.867 196.867 124.6 196C121.4 195.067 117.867 194.6 114 194.6H102.5V242.6H111.9Z" fill="black"/>
<path d="M189.9 183.2H214.5C217.9 183.2 221.167 183.533 224.3 184.2C227.5 184.8 230.333 185.867 232.8 187.4C235.267 188.933 237.233 191 238.7 193.6C240.167 196.2 240.9 199.5 240.9 203.5C240.9 208.633 239.467 212.933 236.6 216.4C233.8 219.867 229.767 221.967 224.5 222.7L243.3 254H228.1L211.7 224H202.5V254H189.9V183.2ZM212.3 213.2C214.1 213.2 215.9 213.133 217.7 213C219.5 212.8 221.133 212.4 222.6 211.8C224.133 211.133 225.367 210.167 226.3 208.9C227.233 207.567 227.7 205.733 227.7 203.4C227.7 201.333 227.267 199.667 226.4 198.4C225.533 197.133 224.4 196.2 223 195.6C221.6 194.933 220.033 194.5 218.3 194.3C216.633 194.1 215 194 213.4 194H202.5V213.2H212.3Z" fill="black"/>
</svg>
